# Tiled2Unity generated file. Do not modify by hand.
# Wavefront file for 'finalLevel1retiledV3_mesh_0003.obj'

# Vertices (Count = 28)
v -53 -34 0
v -54 -34 0
v -54 -33 0
v -53 -33 0
v -54 -34 0
v -55 -34 0
v -55 -33 0
v -54 -33 0
v -55 -34 0
v -56 -34 0
v -56 -33 0
v -55 -33 0
v -53 -35 0
v -54 -35 0
v -54 -34 0
v -53 -34 0
v -55 -35 0
v -56 -35 0
v -56 -34 0
v -55 -34 0
v -53 -36 0
v -54 -36 0
v -54 -35 0
v -53 -35 0
v -55 -36 0
v -56 -36 0
v -56 -35 0
v -55 -35 0

# Texture cooridinates (Count = 22)
vt 0.7142857 0.7619048
vt 0.8571429 0.7619048
vt 0.8571429 0.8095238
vt 0.7142857 0.8095238
vt 0.2857143 0.9047619
vt 0.4285714 0.9047619
vt 0.4285714 0.952381
vt 0.2857143 0.952381
vt 1 0.7619048
vt 1 0.8095238
vt 0.5714286 0.5238096
vt 0.7142857 0.5238096
vt 0.7142857 0.5714285
vt 0.5714286 0.5714285
vt 0.8571429 0.5238096
vt 1 0.5238096
vt 1 0.5714285
vt 0.8571429 0.5714285
vt 0.5714286 0.4761904
vt 0.7142857 0.4761904
vt 0.8571429 0.4761904
vt 1 0.4761904

# Normal
vn 0 0 -1

# Mesh description
g finalLevel1retiledV3_mesh_0003

# Faces
f 1/1/1 2/2/1 3/3/1 4/4/1
f 5/5/1 6/6/1 7/7/1 8/8/1
f 9/2/1 10/9/1 11/10/1 12/3/1
f 13/11/1 14/12/1 15/13/1 16/14/1
f 17/15/1 18/16/1 19/17/1 20/18/1
f 21/19/1 22/20/1 23/12/1 24/11/1
f 25/21/1 26/22/1 27/16/1 28/15/1

